<svg width="21" height="21" viewBox="0 0 21 21" fill="none" xmlns="http://www.w3.org/2000/svg">
<path d="M19.5 4.50021H14.5V2.83021C14.4765 2.19003 14.2002 1.58527 13.7316 1.1485C13.2629 0.711737 12.6402 0.478604 12 0.500211H9C8.35976 0.478604 7.73706 0.711737 7.26843 1.1485C6.7998 1.58527 6.52346 2.19003 6.5 2.83021V4.50021H1.5C1.23478 4.50021 0.98043 4.60557 0.792893 4.79311C0.605357 4.98064 0.5 5.235 0.5 5.50021C0.5 5.76543 0.605357 6.01978 0.792893 6.20732C0.98043 6.39486 1.23478 6.50021 1.5 6.50021H2.5V17.5002C2.5 18.2959 2.81607 19.0589 3.37868 19.6215C3.94129 20.1841 4.70435 20.5002 5.5 20.5002H15.5C16.2957 20.5002 17.0587 20.1841 17.6213 19.6215C18.1839 19.0589 18.5 18.2959 18.5 17.5002V6.50021H19.5C19.7652 6.50021 20.0196 6.39486 20.2071 6.20732C20.3946 6.01978 20.5 5.76543 20.5 5.50021C20.5 5.235 20.3946 4.98064 20.2071 4.79311C20.0196 4.60557 19.7652 4.50021 19.5 4.50021ZM8.5 14.5002C8.5 14.7654 8.39464 15.0198 8.20711 15.2073C8.01957 15.3949 7.76522 15.5002 7.5 15.5002C7.23479 15.5002 6.98043 15.3949 6.79289 15.2073C6.60536 15.0198 6.5 14.7654 6.5 14.5002V10.5002C6.5 10.235 6.60536 9.98064 6.79289 9.79311C6.98043 9.60557 7.23479 9.50021 7.5 9.50021C7.76522 9.50021 8.01957 9.60557 8.20711 9.79311C8.39464 9.98064 8.5 10.235 8.5 10.5002V14.5002ZM8.5 2.83021C8.5 2.67021 8.71 2.50021 9 2.50021H12C12.29 2.50021 12.5 2.67021 12.5 2.83021V4.50021H8.5V2.83021ZM14.5 14.5002C14.5 14.7654 14.3946 15.0198 14.2071 15.2073C14.0196 15.3949 13.7652 15.5002 13.5 15.5002C13.2348 15.5002 12.9804 15.3949 12.7929 15.2073C12.6054 15.0198 12.5 14.7654 12.5 14.5002V10.5002C12.5 10.235 12.6054 9.98064 12.7929 9.79311C12.9804 9.60557 13.2348 9.50021 13.5 9.50021C13.7652 9.50021 14.0196 9.60557 14.2071 9.79311C14.3946 9.98064 14.5 10.235 14.5 10.5002V14.5002Z" fill="white"/>
</svg>
